HIERARCHY
ROOT Hips
{
    OFFSET 0.000000 0.000000 0.000000
    CHANNELS 6 Xposition Yposition Zposition Zrotation Xrotation Yrotation
    JOINT Spine
    {
        OFFSET -0.000000 14.517291 0.000000
        CHANNELS 3 Zrotation Xrotation Yrotation
        JOINT Spine1
        {
            OFFSET -0.000000 37.558300 0.000000
            CHANNELS 3 Zrotation Xrotation Yrotation
            JOINT Neck
            {
                OFFSET -0.000000 37.404057 3.400369
                CHANNELS 3 Zrotation Xrotation Yrotation
                JOINT Head
                {
                    OFFSET -0.000000 24.785618 -3.540803
                    CHANNELS 3 Zrotation Xrotation Yrotation
                    End Site
                    {
                        OFFSET -0.000000 35.408028 0.000000
                    }
                }
            }
            JOINT LeftShoulder
            {
                OFFSET 6.992933 33.973492 -0.192664
                CHANNELS 3 Zrotation Xrotation Yrotation
                JOINT LeftArm
                {
                    OFFSET 21.527611 0.000000 0.000000
                    CHANNELS 3 Zrotation Xrotation Yrotation
                    JOINT LeftForeArm
                    {
                        OFFSET 56.353916 0.000000 0.000000
                        CHANNELS 3 Zrotation Xrotation Yrotation
                        JOINT LeftHand
                        {
                            OFFSET 47.774071 0.000000 0.000000
                            CHANNELS 3 Zrotation Xrotation Yrotation
                            End Site
                            {
                                OFFSET 26.556021 0.000000 0.000000
                            }
                        }
                    }
                }
            }
            JOINT RightShoulder
            {
                OFFSET -7.065357 33.973492 -0.192664
                CHANNELS 3 Zrotation Xrotation Yrotation
                JOINT RightArm
                {
                    OFFSET -21.527611 0.000000 0.000000
                    CHANNELS 3 Zrotation Xrotation Yrotation
                    JOINT RightForeArm
                    {
                        OFFSET -56.353916 0.000000 0.000000
                        CHANNELS 3 Zrotation Xrotation Yrotation
                        JOINT RightHand
                        {
                            OFFSET -47.774071 0.000000 0.000000
                            CHANNELS 3 Zrotation Xrotation Yrotation
                            End Site
                            {
                                OFFSET -26.556021 0.000000 0.000000
                            }
                        }
                    }
                }
            }
        }
    }
    JOINT LeftUpLeg
    {
        OFFSET 17.704014 0.000000 0.000000
        CHANNELS 3 Zrotation Xrotation Yrotation
        JOINT LeftLeg
        {
            OFFSET -0.000000 -81.181816 0.000000
            CHANNELS 3 Zrotation Xrotation Yrotation
            JOINT LeftFoot
            {
                OFFSET -0.000000 -62.821102 0.000000
                CHANNELS 3 Zrotation Xrotation Yrotation
                JOINT LeftToeBase
                {
                    OFFSET -0.000000 -11.507608 26.556021
                    CHANNELS 3 Zrotation Xrotation Yrotation
                    End Site
                    {
                        OFFSET -0.000000 0.000000 7.081605
                    }
                }
            }
        }
    }
    JOINT RightUpLeg
    {
        OFFSET -17.704014 0.000000 0.000000
        CHANNELS 3 Zrotation Xrotation Yrotation
        JOINT RightLeg
        {
            OFFSET -0.000000 -81.181816 0.000000
            CHANNELS 3 Zrotation Xrotation Yrotation
            JOINT RightFoot
            {
                OFFSET -0.000000 -62.821102 0.000000
                CHANNELS 3 Zrotation Xrotation Yrotation
                JOINT RightToeBase
                {
                    OFFSET -0.000000 -11.507608 26.556021
                    CHANNELS 3 Zrotation Xrotation Yrotation
                    End Site
                    {
                        OFFSET -0.000000 0.000000 7.081605
                    }
                }
            }
        }
    }
}
MOTION
Frames:    9
Frame Time:    0.008333
11.493501    150.706726    -128.516556    -1.106460    -1.067850    25.310102    1.405895    -1.921397    2.807580    -6.566278    2.337543    1.061490    6.182084    -0.091348    -14.621305    10.831362    1.242852    -14.759007    5.442342    8.470888    -15.740120    -35.572590    21.494698    -48.054119    -7.102316    -8.523282    -117.801018    2.127971    -20.083498    -6.565612    -15.887392    -4.180036    -4.601745    20.203867    -22.414721    54.324947    -11.668283    -13.150390    43.335667    0.941393    -8.310443    32.377327    4.951467    -12.899434    -5.194944    -20.418034    48.894718    -14.995809    21.466261    -25.826883    49.548687    0.000000    0.000000    0.000000    -20.500435    -22.011553    -34.630013    8.529096    14.659488    -27.929258    -5.787040    13.442105    -23.121519    0.000000    0.000000    0.000000    
11.558958    150.702957    -128.624191    -1.125163    -1.078275    25.388254    1.419109    -1.912121    2.769472    -6.547442    2.302421    1.046362    6.145366    -0.080323    -14.627359    10.855692    1.242113    -14.756025    5.444868    8.460960    -15.749970    -35.557251    21.488945    -48.079376    -7.091330    -8.566442    -117.785896    2.157405    -20.105566    -6.573337    -15.901498    -4.185971    -4.655877    20.229342    -22.435244    54.392109    -11.683042    -12.853364    43.537823    0.012656    -8.246095    29.646845    4.931456    -12.954310    -5.263124    -20.480431    48.916054    -14.998616    21.522282    -25.774143    49.586357    0.000000    0.000000    0.000000    -20.452045    -21.948458    -34.549549    8.445881    14.463062    -27.948891    -5.729011    13.551517    -23.193745    0.000000    0.000000    0.000000    
11.631354    150.693756    -128.739746    -1.134377    -1.087997    25.469248    1.425244    -1.903330    2.729899    -6.550986    2.276306    1.031787    6.224387    -0.077339    -14.629325    10.758988    1.213772    -14.779533    5.473959    8.451290    -15.767734    -35.543358    21.503023    -48.113537    -7.019082    -8.693093    -117.765541    2.107870    -20.105593    -6.621963    -15.876529    -4.226901    -4.709765    20.225325    -22.401709    54.391884    -11.649158    -12.856510    43.501740    0.033654    -8.261640    29.616861    4.892222    -13.007634    -5.312026    -20.503529    48.945892    -14.993960    21.583851    -25.722502    49.573795    0.000000    0.000000    0.000000    -20.426413    -21.894386    -34.484592    8.359665    14.298136    -28.001551    -5.679928    13.659795    -23.219362    0.000000    0.000000    0.000000    
11.702420    150.683258    -128.853165    -1.142872    -1.089129    25.548351    1.409462    -1.920316    2.691290    -6.529994    2.267645    1.017995    6.261744    -0.081945    -14.637242    10.706133    1.212762    -14.800401    5.500416    8.437516    -15.792437    -35.544975    21.503771    -48.133427    -6.982797    -8.766039    -117.749725    2.158226    -20.115635    -6.556907    -15.843342    -4.244602    -4.706746    20.183142    -22.365160    54.296146    -11.611093    -13.185307    43.227993    1.002015    -8.363734    32.381157    4.851058    -13.074080    -5.346891    -20.531937    48.990616    -14.954000    21.610268    -25.695818    49.544495    0.000000    0.000000    0.000000    -20.400124    -21.856152    -34.401653    8.259816    14.138249    -28.088980    -5.652216    13.770669    -23.211550    0.000000    0.000000    0.000000    
11.785720    150.666122    -128.962631    -1.138717    -1.116605    25.626072    1.393346    -1.916406    2.654813    -6.498940    2.259948    1.004882    6.287515    -0.085168    -14.635149    10.637987    1.219653    -14.811643    5.506117    8.435701    -15.826361    -35.545357    21.498856    -48.141644    -6.940237    -8.861733    -117.782196    2.114952    -20.140957    -6.386909    -15.990466    -4.223250    -4.592549    20.422981    -22.560116    54.128868    -11.468526    -13.036219    43.351669    0.929575    -8.275030    32.420036    4.807382    -13.100066    -5.376143    -20.544842    49.028297    -14.970354    21.679741    -25.649853    49.539661    0.000000    0.000000    0.000000    -20.387104    -21.785051    -34.300152    8.187488    13.988856    -28.193605    -5.590108    13.862697    -23.222542    0.000000    0.000000    0.000000    
11.878337    150.644608    -129.084824    -1.128366    -1.139688    25.714466    1.375876    -1.917595    2.635224    -6.472205    2.258605    0.997810    6.255099    -0.090341    -14.657409    10.653757    1.251397    -14.831266    5.521038    8.444780    -15.872345    -35.506210    21.505686    -48.190289    -6.926760    -8.961353    -117.733238    2.080346    -20.204742    -6.548431    -15.985117    -4.234490    -4.617062    20.385103    -22.558271    54.071297    -11.465208    -13.043274    43.324467    0.911885    -8.292087    32.381325    4.750707    -13.138771    -5.438808    -20.592119    49.072140    -14.924747    21.745556    -25.610304    49.504410    0.000000    0.000000    0.000000    -20.397566    -21.723755    -34.273857    8.100212    13.871764    -28.220278    -5.557736    13.968855    -23.232347    0.000000    0.000000    0.000000    
11.980676    150.615936    -129.212952    -1.104034    -1.171015    25.806273    1.364109    -1.896908    2.614675    -6.468979    2.243639    0.990269    6.259878    -0.054025    -14.692025    10.637077    1.234443    -14.866750    5.548273    8.461958    -15.912881    -35.464993    21.501322    -48.230320    -6.890874    -9.051812    -117.715492    2.042777    -20.228737    -6.580485    -15.998953    -4.237367    -4.689845    20.417591    -22.573820    54.124882    -11.489449    -12.742991    43.518646    -0.058476    -8.232377    29.707296    4.681014    -13.176641    -5.468463    -20.615820    49.148197    -14.912593    21.824749    -25.560722    49.463608    0.000000    0.000000    0.000000    -20.431831    -21.651701    -34.185280    8.045715    13.759805    -28.277245    -5.489711    14.062245    -23.313377    0.000000    0.000000    0.000000    
12.090270    150.577866    -129.334061    -1.085091    -1.200426    25.900831    1.345771    -1.899778    2.594380    -6.464003    2.245643    0.983596    6.370567    -0.086729    -14.695152    10.469910    1.262535    -14.912480    5.592829    8.506803    -15.924768    -35.412125    21.522558    -48.329594    -6.849361    -9.190186    -117.694176    1.957019    -20.285732    -6.584107    -15.969007    -4.252657    -4.745384    20.403776    -22.544683    54.112579    -11.504913    -12.757230    43.446220    0.051849    -8.220005    29.729076    4.611942    -13.223983    -5.491234    -20.629616    49.249554    -14.922163    21.889721    -25.535477    49.434937    0.000000    0.000000    0.000000    -20.464821    -21.570726    -34.074924    8.009011    13.635648    -28.360788    -5.446779    14.130527    -23.373625    0.000000    0.000000    0.000000    
12.198164    150.539566    -129.463409    -1.068078    -1.234011    26.006367    1.300424    -1.883739    2.540702    -6.387381    2.232782    0.963787    6.399243    -0.134540    -14.678453    10.339581    1.299479    -14.921992    5.556961    8.510056    -15.912845    -35.402020    21.492111    -48.354713    -6.839184    -9.206825    -117.727425    1.957448    -20.289228    -6.374443    -15.971965    -4.254048    -4.766964    20.366436    -22.545561    54.101383    -11.528649    -12.760907    43.397724    0.063399    -8.216936    29.702227    4.549659    -13.279367    -5.527678    -20.666395    49.354492    -14.970152    21.985909    -25.467066    49.449741    0.000000    0.000000    0.000000    -20.495539    -21.495384    -34.048088    7.932122    13.534922    -28.370785    -5.391584    14.217341    -23.427858    0.000000    0.000000    0.000000    
